<svg id="Layer_1" data-name="Layer 1" xmlns="http://www.w3.org/2000/svg" viewBox="0 0 78.63 82.16"><title>monopoly-icon</title><path d="M13.8,85.23a1,1,0,1,0-1.94.5l.14.52A1,1,0,0,0,13,87a1,1,0,0,0,.26,0,1,1,0,0,0,.7-1.23Zm4.32-18.69c-.31.17-.63.35-1,.55a1,1,0,0,0,1.07,1.69c.28-.17.55-.33.83-.48a1,1,0,1,0-.94-1.76ZM13.85,70c-.23.29-.44.59-.65.91A1,1,0,0,0,14.87,72c.18-.27.36-.52.55-.76A1,1,0,1,0,13.85,70ZM12.19,82.4a1,1,0,0,0,.89-1.1c0-.34-.06-.66-.08-1a1,1,0,0,0-1.06-.94A1,1,0,0,0,11,80.43q0,.52.09,1.07a1,1,0,0,0,1,.9ZM12,77.26l.17,0a1,1,0,0,0,1-.83c.06-.32.12-.63.2-.93A1,1,0,1,0,11.45,75c-.09.35-.16.71-.23,1.08A1,1,0,0,0,12,77.26ZM27,64.65a5.2,5.2,0,1,0,5.2-5.2,5.2,5.2,0,0,0-5.2,5.2ZM22.44,67a1,1,0,0,1-.2-2c.37-.07.59-.1.59-.1H23c0-.1,0-.2,0-.3a9.24,9.24,0,1,1,.28,2.22,1,1,0,0,1-.16.05l-.43.08-.2,0ZM89.63,44.79h0A6.67,6.67,0,0,1,83,51.46H18.11a6.67,6.67,0,0,1-6.67-6.67h0a6.67,6.67,0,0,1,6.67-6.67h6V35.38A26.38,26.38,0,0,1,50.53,9h0A26.38,26.38,0,0,1,76.91,35.38v2.73h6a6.67,6.67,0,0,1,6.67,6.67ZM77,78.71c-10,0-20.09-4.86-26.48,0-5-5.56-15.88,0-26.54,0a1.82,1.82,0,0,0-1.73,2.5A16.73,16.73,0,0,0,50.53,85a16.73,16.73,0,0,0,28.24-3.82A1.82,1.82,0,0,0,77,78.71ZM58.29,64.78a7.14,7.14,0,1,1,7.14,7.15,7.14,7.14,0,0,1-7.14-7.15Z" transform="translate(-11 -9)"/></svg>