<?xml version="1.0" encoding="iso-8859-1"?>
<!-- Generator: Adobe Illustrator 18.0.0, SVG Export Plug-In . SVG Version: 6.00 Build 0)  -->
<!DOCTYPE svg PUBLIC "-//W3C//DTD SVG 1.1//EN" "http://www.w3.org/Graphics/SVG/1.1/DTD/svg11.dtd">
<svg version="1.1" id="Capa_1" xmlns="http://www.w3.org/2000/svg" xmlns:xlink="http://www.w3.org/1999/xlink" x="0px" y="0px"
	 viewBox="0 0 315.71 315.71" style="enable-background:new 0 0 315.71 315.71;" xml:space="preserve">
<g>
	<path d="M132.305,218.275c-6.396,0-11.599,5.203-11.599,11.6c0,6.395,5.203,11.599,11.599,11.599
		c6.396,0,11.599-5.203,11.599-11.599C143.903,223.479,138.7,218.275,132.305,218.275z"/>
	<path d="M314.196,130.508L267.844,35.18c-3.623-7.451-12.602-10.552-20.05-6.931c-6.718,3.267-9.882,10.885-7.787,17.813
		l-137.131,41.32c-22.222,6.696-40.389,22.802-49.7,44.062c-5.976,13.645-7.91,28.53-5.851,42.962
		c-5.343-2.377-9.511-5.408-12.355-9.073c-3.86-4.973-4.839-10.478-4.958-14.333c-0.09-2.903-2.141-5.377-4.976-6.01
		c-6.772-1.511-17.649-4.113-17.865-4.163c-1.631-0.382-3.347-0.033-4.697,0.958c-1.35,0.991-2.198,2.524-2.321,4.194
		c-0.617,8.393,0.206,23.262,10.641,37.124c10.077,13.388,26.164,21.94,47.931,25.533c3.061-10.588,8.344-20.236,15.318-28.408
		c14.061-16.476,34.955-26.953,58.262-26.953c33.38,0,61.824,21.471,72.293,51.321l83.838-58.907
		c2.849,4.064,7.482,6.381,12.281,6.381c2.201,0,4.436-0.486,6.549-1.513C314.716,146.935,317.818,137.958,314.196,130.508z"/>
	<path d="M132.305,170.775c-32.587,0-59.099,26.512-59.099,59.1c0,32.587,26.512,59.099,59.099,59.099s59.099-26.512,59.099-59.099
		C191.403,197.287,164.892,170.775,132.305,170.775z M132.305,258.974c-16.045,0-29.099-13.054-29.099-29.099
		c0-16.046,13.054-29.1,29.099-29.1c16.045,0,29.099,13.054,29.099,29.1C161.403,245.92,148.35,258.974,132.305,258.974z"/>
</g>
<g>
</g>
<g>
</g>
<g>
</g>
<g>
</g>
<g>
</g>
<g>
</g>
<g>
</g>
<g>
</g>
<g>
</g>
<g>
</g>
<g>
</g>
<g>
</g>
<g>
</g>
<g>
</g>
<g>
</g>
</svg>
