<?xml version="1.0" encoding="iso-8859-1"?>
<!-- Generator: Adobe Illustrator 16.0.0, SVG Export Plug-In . SVG Version: 6.00 Build 0)  -->
<!DOCTYPE svg PUBLIC "-//W3C//DTD SVG 1.1//EN" "http://www.w3.org/Graphics/SVG/1.1/DTD/svg11.dtd">
<svg version="1.1" id="Capa_1" xmlns="http://www.w3.org/2000/svg" xmlns:xlink="http://www.w3.org/1999/xlink" x="0px" y="0px"
	 width="231.806px" height="231.805px" viewBox="0 0 231.806 231.805" style="enable-background:new 0 0 231.806 231.805;"
	 xml:space="preserve">
<g>
	<g>
		<path d="M210.604,194.822c-0.916-5.779-6.343-9.698-12.147-8.917c-15.716,2.123-47.178,5.634-81.11,5.251v-0.031
			c-0.482,0.011-0.96,0.011-1.442,0.016c-0.481-0.005-0.96-0.005-1.447-0.016v0.031c-33.93,0.383-65.395-3.128-81.11-5.251
			c-5.802-0.781-11.231,3.138-12.148,8.917l-1.968,12.334c-0.917,5.779,2.747,12.216,8.303,14.043
			c42.864,14.142,133.872,14.142,176.737,0c5.556-1.833,9.222-8.264,8.3-14.043L210.604,194.822z"/>
		<path d="M39.976,137.054c-1.002,0-1.937-0.243-2.783-0.642l-6.571,44.07c0.552,0.016,1.093-0.015,1.654,0.062
			c1.163,0.15,2.444,0.326,3.786,0.502c-0.158-0.559-0.27-1.139-0.27-1.75c0-3.588,2.91-6.504,6.506-6.504
			c3.594,0,6.506,2.916,6.506,6.504c0,1.16-0.329,2.227-0.854,3.159c10.514,1.154,23.602,2.31,38.028,2.92
			c-0.531-0.942-0.854-2.014-0.854-3.169c0-3.594,2.913-6.509,6.506-6.509c3.591,0,6.506,2.915,6.506,6.509
			c0,1.295-0.386,2.496-1.038,3.511c4.034,0.078,8.14,0.109,12.285,0.078v-0.078l5.028,0.031l4.93-0.062v0.108
			c0.53,0.005,1.062,0.005,1.592,0.005c4.809,0,9.541-0.083,14.181-0.212c-0.606-0.989-0.974-2.139-0.974-3.382
			c0-3.594,2.915-6.509,6.509-6.509c3.589,0,6.504,2.915,6.504,6.509c0,1.066-0.279,2.051-0.73,2.937
			c13.774-0.684,26.223-1.808,36.144-2.895c-0.461-0.891-0.74-1.875-0.74-2.952c0-3.588,2.91-6.504,6.509-6.504
			c3.594,0,6.504,2.916,6.504,6.504c0,0.518-0.073,1.01-0.192,1.486c0.611-0.078,1.243-0.16,1.803-0.238
			c1.646-0.223,3.226-0.108,4.748,0.191l-5.137-39.395c-0.398,0.082-0.808,0.124-1.228,0.124c-3.588,0-6.503-2.915-6.503-6.504
			c0-3.438,2.672-6.224,6.053-6.462l-4.888-37.484c-0.384,0.067-0.767,0.116-1.165,0.116c-3.594,0-6.51-2.918-6.51-6.506
			c0-3.41,2.642-6.188,5.991-6.455l-7.912-60.659C178.641,7.842,169.708,0,159.952,0H75.182c-9.75,0-18.828,7.822-20.265,17.466
			L45.76,78.91c0.911-0.487,1.937-0.785,3.044-0.785c3.594,0,6.506,2.916,6.506,6.506c0,3.588-2.913,6.506-6.506,6.506
			c-1.787,0-3.41-0.728-4.583-1.887l-5.202,34.89c0.313-0.041,0.626-0.093,0.956-0.093c3.588,0,6.506,2.91,6.506,6.509
			C46.477,134.145,43.564,137.054,39.976,137.054z M166.689,164.872c-3.599,0-6.509-2.915-6.509-6.515
			c0-3.583,2.91-6.503,6.509-6.503c3.594,0,6.504,2.92,6.504,6.503C173.193,161.957,170.283,164.872,166.689,164.872z
			 M166.689,116.746c-3.599,0-6.509-2.915-6.509-6.509c0-3.591,2.91-6.506,6.509-6.506c3.594,0,6.504,2.915,6.504,6.506
			C173.193,113.831,170.283,116.746,166.689,116.746z M173.193,61.671c0,3.596-2.91,6.512-6.504,6.512
			c-3.599,0-6.509-2.916-6.509-6.512c0-3.591,2.91-6.506,6.509-6.506C170.283,55.17,173.193,58.088,173.193,61.671z M160.186,6.607
			c3.599,0,6.509,2.916,6.509,6.507c0,3.588-2.91,6.504-6.509,6.504c-3.594,0-6.504-2.916-6.504-6.504
			C153.682,9.517,156.592,6.607,160.186,6.607z M151.232,133.202c0,3.594-2.91,6.515-6.509,6.515c-3.588,0-6.504-2.921-6.504-6.515
			s2.91-6.504,6.504-6.504C148.328,126.698,151.232,129.608,151.232,133.202z M140.638,30.004c3.589,0,6.504,2.918,6.504,6.507
			c0,3.596-2.91,6.506-6.504,6.506c-3.599,0-6.509-2.91-6.509-6.506C134.135,32.922,137.045,30.004,140.638,30.004z M140.638,79.896
			c3.589,0,6.504,2.915,6.504,6.506c0,3.589-2.91,6.507-6.504,6.507c-3.599,0-6.509-2.918-6.509-6.507
			C134.135,82.811,137.045,79.896,140.638,79.896z M115.905,164.872c-3.593,0-6.506-2.915-6.506-6.515
			c0-3.583,2.913-6.503,6.506-6.503c3.596,0,6.506,2.92,6.506,6.503C122.406,161.957,119.496,164.872,115.905,164.872z
			 M125.187,109.367c0,3.588-2.912,6.508-6.509,6.508c-3.588,0-6.506-2.92-6.506-6.508c0-3.596,2.913-6.511,6.506-6.511
			C122.274,102.856,125.187,105.771,125.187,109.367z M122.406,61.671c0,3.596-2.91,6.512-6.506,6.512
			c-3.594,0-6.506-2.916-6.506-6.512c0-3.591,2.913-6.506,6.506-6.506C119.496,55.17,122.406,58.088,122.406,61.671z M113.704,6.607
			c3.596,0,6.507,2.916,6.507,6.507c0,3.588-2.911,6.504-6.507,6.504c-3.588,0-6.506-2.916-6.506-6.504
			C107.198,9.517,110.116,6.607,113.704,6.607z M94.411,141.477c-3.596,0-6.506-2.921-6.506-6.515s2.91-6.504,6.506-6.504
			c3.588,0,6.503,2.91,6.503,6.504C100.909,138.556,97.999,141.477,94.411,141.477z M100.448,84.631c0,3.588-2.91,6.506-6.506,6.506
			c-3.588,0-6.506-2.917-6.506-6.506c0-3.591,2.913-6.506,6.506-6.506C97.538,78.13,100.448,81.045,100.448,84.631z M91.63,30.004
			c3.591,0,6.506,2.918,6.506,6.507c0,3.596-2.91,6.506-6.506,6.506c-3.594,0-6.506-2.91-6.506-6.506
			C85.124,32.922,88.036,30.004,91.63,30.004z M69.675,8.371c3.594,0,6.506,2.918,6.506,6.509c0,3.594-2.912,6.504-6.506,6.504
			c-3.591,0-6.506-2.91-6.506-6.504C63.168,11.283,66.083,8.371,69.675,8.371z M69.675,52.964c3.594,0,6.506,2.913,6.506,6.506
			c0,3.591-2.912,6.506-6.506,6.506c-3.591,0-6.506-2.915-6.506-6.506C63.168,55.877,66.083,52.964,69.675,52.964z M69.675,103.736
			c3.594,0,6.506,2.915,6.506,6.506c0,3.594-2.912,6.514-6.506,6.514c-3.591,0-6.506-2.92-6.506-6.514
			C63.168,106.651,66.083,103.736,69.675,103.736z M69.675,150.093c3.594,0,6.506,2.92,6.506,6.503c0,3.6-2.912,6.51-6.506,6.51
			c-3.591,0-6.506-2.916-6.506-6.51C63.168,153.013,66.083,150.093,69.675,150.093z"/>
	</g>
</g>
<g>
</g>
<g>
</g>
<g>
</g>
<g>
</g>
<g>
</g>
<g>
</g>
<g>
</g>
<g>
</g>
<g>
</g>
<g>
</g>
<g>
</g>
<g>
</g>
<g>
</g>
<g>
</g>
<g>
</g>
</svg>
